<!-- Created with Inkscape (http://www.inkscape.org/) -->
<svg xmlns:rdf="http://www.w3.org/1999/02/22-rdf-syntax-ns#" xmlns="http://www.w3.org/2000/svg" height="300" width="248" version="1.0" xmlns:cc="http://creativecommons.org/ns#" xmlns:dc="http://purl.org/dc/elements/1.1/">
 <metadata>
  <rdf:RDF>
   <cc:Work rdf:about="">
    <dc:format>image/svg+xml</dc:format>
    <dc:type rdf:resource="http://purl.org/dc/dcmitype/StillImage"/>
    <dc:title/>
   </cc:Work>
  </rdf:RDF>
 </metadata>
 <path stroke-miterlimit="4" d="m247,1.0001,0,214.77c0,82.42-84.912,44.012-123,82.791-38.089-38.77-123-0.37-123-82.79v-214.77h246z" fill="#003d8f"/>
 <path fill-rule="evenodd" d="m247,67.738c-8.984-0.856-18.167-1.2347-24.932-8.7467-12.64-14.03,0.36-33.845-12.1-47.688-9.27-10.294-23.3-6.9304-35.07-10.301h-49.233c-0.0707,7.8293,0.26933,15.589,6.1347,22.104,12.633,14.031,33.697,3.176,46.161,17.019s-0.53334,33.657,12.1,47.688c12.633,14.029,33.697,3.176,46.161,17.019,11.993,13.319,0.41866,32.167,10.78,46.071v-83.164zm0,148.03c0,17.816-3.9733,29.977-10.577,38.501-0.004-9.5227,1.0907-19.261-5.96-27.091-12.464-13.843-33.528-2.9893-46.16-17.02-12.635-14.031,0.36266-33.844-12.101-47.687s-33.528-2.988-46.161-17.019,0.364-33.845-12.1-47.688c-12.46-13.837-33.528-2.983-46.161-17.013-12.634-14.031,0.362-33.846-12.102-47.688s-33.526-2.988-46.161-17.019c-4.088-4.54-5.4893-9.6867-5.9413-15.041h80.456c1.2827,0.896,2.5053,1.9627,3.656,3.24,12.464,13.841-0.532,33.655,12.101,47.687,12.633,14.031,33.697,3.176,46.161,17.019,12.464,13.844-0.53333,33.657,12.1,47.687,12.633,14.031,33.697,3.1773,46.161,17.02s-0.532,33.656,12.1,47.687c8.224,9.132,20.019,7.7253,30.689,9.444v24.987zm-42.612,56.7c-13.655,3.3853-28.972,4.7667-43.387,7.996-12.524-7.0173-29.78-0.51467-40.719-12.663-12.633-14.031,0.364-33.844-12.1-47.687s-33.528-2.988-46.161-17.019,0.364-33.845-12.1-47.688-33.528-2.988-46.161-17.019c-1.1067-1.2293-2.012-2.5027-2.76-3.8133v-81.101c8.2853,0.76,16.523,1.58,22.668,8.4053,12.464,13.843-0.532,33.657,12.101,47.688s33.697,3.176,46.161,17.019-0.53333,33.657,12.1,47.687c12.633,14.031,33.697,3.1773,46.161,17.02s-0.532,33.656,12.101,47.687c12.632,14.031,33.696,3.1773,46.161,17.02,4.4227,4.912,5.6387,10.577,5.9333,16.468zm-122.19,6.9933c-38.443-7.556-81.2-5.2053-81.2-63.692v-39.329c6.2533,0.852,12.197,2.5533,16.912,7.7893,12.464,13.843-0.532,33.656,12.101,47.687s33.696,3.1773,46.161,17.02c7.9,8.7733,5.5733,19.945,6.0253,30.525z" fill="#ffcd50"/>
 <path fill-rule="evenodd" d="M247,145.62l-152.06,136.88c10.942,3.17,21.042,7.9,29.062,16.06,38.09-38.78,123-0.36,123-82.78v-70.16z" fill="#003d8f"/>
 <path d="m247,1.0001,0,214.77c0,82.42-84.912,44.012-123,82.791-38.089-38.77-123-0.37-123-82.79v-214.77h246z" stroke="#000" stroke-miterlimit="4" stroke-dasharray="none" stroke-width="2" fill="none"/>
</svg>
